<svg xmlns="http://www.w3.org/2000/svg" viewBox="0 0 100 100" preserveAspectRatio="xMidYMid" width="200" height="200" style="shape-rendering: auto; display: block; background: transparent;" xmlns:xlink="http://www.w3.org/1999/xlink"><g><g transform="rotate(0 50 50)">
  <rect fill="#168825" height="2" width="1" ry="0.7000000000000001" rx="0.5" y="42" x="49.5">
    <animate repeatCount="indefinite" begin="-0.8585164835164834s" dur="0.8928571428571428s" keyTimes="0;1" values="1;0" attributeName="opacity"></animate>
  </rect>
</g><g transform="rotate(13.846153846153847 50 50)">
  <rect fill="#168825" height="2" width="1" ry="0.7000000000000001" rx="0.5" y="42" x="49.5">
    <animate repeatCount="indefinite" begin="-0.824175824175824s" dur="0.8928571428571428s" keyTimes="0;1" values="1;0" attributeName="opacity"></animate>
  </rect>
</g><g transform="rotate(27.692307692307693 50 50)">
  <rect fill="#168825" height="2" width="1" ry="0.7000000000000001" rx="0.5" y="42" x="49.5">
    <animate repeatCount="indefinite" begin="-0.7898351648351647s" dur="0.8928571428571428s" keyTimes="0;1" values="1;0" attributeName="opacity"></animate>
  </rect>
</g><g transform="rotate(41.53846153846154 50 50)">
  <rect fill="#168825" height="2" width="1" ry="0.7000000000000001" rx="0.5" y="42" x="49.5">
    <animate repeatCount="indefinite" begin="-0.7554945054945054s" dur="0.8928571428571428s" keyTimes="0;1" values="1;0" attributeName="opacity"></animate>
  </rect>
</g><g transform="rotate(55.38461538461539 50 50)">
  <rect fill="#168825" height="2" width="1" ry="0.7000000000000001" rx="0.5" y="42" x="49.5">
    <animate repeatCount="indefinite" begin="-0.721153846153846s" dur="0.8928571428571428s" keyTimes="0;1" values="1;0" attributeName="opacity"></animate>
  </rect>
</g><g transform="rotate(69.23076923076923 50 50)">
  <rect fill="#168825" height="2" width="1" ry="0.7000000000000001" rx="0.5" y="42" x="49.5">
    <animate repeatCount="indefinite" begin="-0.6868131868131867s" dur="0.8928571428571428s" keyTimes="0;1" values="1;0" attributeName="opacity"></animate>
  </rect>
</g><g transform="rotate(83.07692307692308 50 50)">
  <rect fill="#168825" height="2" width="1" ry="0.7000000000000001" rx="0.5" y="42" x="49.5">
    <animate repeatCount="indefinite" begin="-0.6524725274725274s" dur="0.8928571428571428s" keyTimes="0;1" values="1;0" attributeName="opacity"></animate>
  </rect>
</g><g transform="rotate(96.92307692307692 50 50)">
  <rect fill="#168825" height="2" width="1" ry="0.7000000000000001" rx="0.5" y="42" x="49.5">
    <animate repeatCount="indefinite" begin="-0.618131868131868s" dur="0.8928571428571428s" keyTimes="0;1" values="1;0" attributeName="opacity"></animate>
  </rect>
</g><g transform="rotate(110.76923076923077 50 50)">
  <rect fill="#168825" height="2" width="1" ry="0.7000000000000001" rx="0.5" y="42" x="49.5">
    <animate repeatCount="indefinite" begin="-0.5837912087912087s" dur="0.8928571428571428s" keyTimes="0;1" values="1;0" attributeName="opacity"></animate>
  </rect>
</g><g transform="rotate(124.61538461538461 50 50)">
  <rect fill="#168825" height="2" width="1" ry="0.7000000000000001" rx="0.5" y="42" x="49.5">
    <animate repeatCount="indefinite" begin="-0.5494505494505494s" dur="0.8928571428571428s" keyTimes="0;1" values="1;0" attributeName="opacity"></animate>
  </rect>
</g><g transform="rotate(138.46153846153845 50 50)">
  <rect fill="#168825" height="2" width="1" ry="0.7000000000000001" rx="0.5" y="42" x="49.5">
    <animate repeatCount="indefinite" begin="-0.5151098901098901s" dur="0.8928571428571428s" keyTimes="0;1" values="1;0" attributeName="opacity"></animate>
  </rect>
</g><g transform="rotate(152.30769230769232 50 50)">
  <rect fill="#168825" height="2" width="1" ry="0.7000000000000001" rx="0.5" y="42" x="49.5">
    <animate repeatCount="indefinite" begin="-0.48076923076923067s" dur="0.8928571428571428s" keyTimes="0;1" values="1;0" attributeName="opacity"></animate>
  </rect>
</g><g transform="rotate(166.15384615384616 50 50)">
  <rect fill="#168825" height="2" width="1" ry="0.7000000000000001" rx="0.5" y="42" x="49.5">
    <animate repeatCount="indefinite" begin="-0.44642857142857134s" dur="0.8928571428571428s" keyTimes="0;1" values="1;0" attributeName="opacity"></animate>
  </rect>
</g><g transform="rotate(180 50 50)">
  <rect fill="#168825" height="2" width="1" ry="0.7000000000000001" rx="0.5" y="42" x="49.5">
    <animate repeatCount="indefinite" begin="-0.412087912087912s" dur="0.8928571428571428s" keyTimes="0;1" values="1;0" attributeName="opacity"></animate>
  </rect>
</g><g transform="rotate(193.84615384615384 50 50)">
  <rect fill="#168825" height="2" width="1" ry="0.7000000000000001" rx="0.5" y="42" x="49.5">
    <animate repeatCount="indefinite" begin="-0.3777472527472527s" dur="0.8928571428571428s" keyTimes="0;1" values="1;0" attributeName="opacity"></animate>
  </rect>
</g><g transform="rotate(207.69230769230768 50 50)">
  <rect fill="#168825" height="2" width="1" ry="0.7000000000000001" rx="0.5" y="42" x="49.5">
    <animate repeatCount="indefinite" begin="-0.34340659340659335s" dur="0.8928571428571428s" keyTimes="0;1" values="1;0" attributeName="opacity"></animate>
  </rect>
</g><g transform="rotate(221.53846153846155 50 50)">
  <rect fill="#168825" height="2" width="1" ry="0.7000000000000001" rx="0.5" y="42" x="49.5">
    <animate repeatCount="indefinite" begin="-0.309065934065934s" dur="0.8928571428571428s" keyTimes="0;1" values="1;0" attributeName="opacity"></animate>
  </rect>
</g><g transform="rotate(235.3846153846154 50 50)">
  <rect fill="#168825" height="2" width="1" ry="0.7000000000000001" rx="0.5" y="42" x="49.5">
    <animate repeatCount="indefinite" begin="-0.2747252747252747s" dur="0.8928571428571428s" keyTimes="0;1" values="1;0" attributeName="opacity"></animate>
  </rect>
</g><g transform="rotate(249.23076923076923 50 50)">
  <rect fill="#168825" height="2" width="1" ry="0.7000000000000001" rx="0.5" y="42" x="49.5">
    <animate repeatCount="indefinite" begin="-0.24038461538461534s" dur="0.8928571428571428s" keyTimes="0;1" values="1;0" attributeName="opacity"></animate>
  </rect>
</g><g transform="rotate(263.0769230769231 50 50)">
  <rect fill="#168825" height="2" width="1" ry="0.7000000000000001" rx="0.5" y="42" x="49.5">
    <animate repeatCount="indefinite" begin="-0.206043956043956s" dur="0.8928571428571428s" keyTimes="0;1" values="1;0" attributeName="opacity"></animate>
  </rect>
</g><g transform="rotate(276.9230769230769 50 50)">
  <rect fill="#168825" height="2" width="1" ry="0.7000000000000001" rx="0.5" y="42" x="49.5">
    <animate repeatCount="indefinite" begin="-0.17170329670329668s" dur="0.8928571428571428s" keyTimes="0;1" values="1;0" attributeName="opacity"></animate>
  </rect>
</g><g transform="rotate(290.7692307692308 50 50)">
  <rect fill="#168825" height="2" width="1" ry="0.7000000000000001" rx="0.5" y="42" x="49.5">
    <animate repeatCount="indefinite" begin="-0.13736263736263735s" dur="0.8928571428571428s" keyTimes="0;1" values="1;0" attributeName="opacity"></animate>
  </rect>
</g><g transform="rotate(304.61538461538464 50 50)">
  <rect fill="#168825" height="2" width="1" ry="0.7000000000000001" rx="0.5" y="42" x="49.5">
    <animate repeatCount="indefinite" begin="-0.103021978021978s" dur="0.8928571428571428s" keyTimes="0;1" values="1;0" attributeName="opacity"></animate>
  </rect>
</g><g transform="rotate(318.46153846153845 50 50)">
  <rect fill="#168825" height="2" width="1" ry="0.7000000000000001" rx="0.5" y="42" x="49.5">
    <animate repeatCount="indefinite" begin="-0.06868131868131867s" dur="0.8928571428571428s" keyTimes="0;1" values="1;0" attributeName="opacity"></animate>
  </rect>
</g><g transform="rotate(332.3076923076923 50 50)">
  <rect fill="#168825" height="2" width="1" ry="0.7000000000000001" rx="0.5" y="42" x="49.5">
    <animate repeatCount="indefinite" begin="-0.03434065934065934s" dur="0.8928571428571428s" keyTimes="0;1" values="1;0" attributeName="opacity"></animate>
  </rect>
</g><g transform="rotate(346.15384615384613 50 50)">
  <rect fill="#168825" height="2" width="1" ry="0.7000000000000001" rx="0.5" y="42" x="49.5">
    <animate repeatCount="indefinite" begin="0s" dur="0.8928571428571428s" keyTimes="0;1" values="1;0" attributeName="opacity"></animate>
  </rect>
</g><g></g></g><!-- [ldio] generated by https://loading.io --></svg>